<mxfile host="app.diagrams.net" agent="Mozilla/5.0 (Windows NT 10.0; Win64; x64) AppleWebKit/537.36 (KHTML, like Gecko) Chrome/136.0.0.0 Safari/537.36" version="27.0.3">
  <diagram name="PÃ¡gina-1" id="MTPIbppb3psAn6vT0nMo">
    <mxGraphModel dx="855" dy="412" grid="1" gridSize="10" guides="1" tooltips="1" connect="1" arrows="1" fold="1" page="1" pageScale="1" pageWidth="827" pageHeight="1169" math="0" shadow="0">
      <root>
        <mxCell id="0" />
        <mxCell id="1" parent="0" />
        <mxCell id="iBOJzQwdKrYFcKQCmhJa-5" style="edgeStyle=orthogonalEdgeStyle;rounded=0;orthogonalLoop=1;jettySize=auto;html=1;shape=link;" edge="1" parent="1" source="iBOJzQwdKrYFcKQCmhJa-1" target="iBOJzQwdKrYFcKQCmhJa-3">
          <mxGeometry relative="1" as="geometry">
            <Array as="points">
              <mxPoint x="380" y="130" />
              <mxPoint x="210" y="130" />
            </Array>
          </mxGeometry>
        </mxCell>
        <mxCell id="iBOJzQwdKrYFcKQCmhJa-6" style="edgeStyle=orthogonalEdgeStyle;rounded=0;orthogonalLoop=1;jettySize=auto;html=1;entryX=0.5;entryY=0;entryDx=0;entryDy=0;shape=link;" edge="1" parent="1" source="iBOJzQwdKrYFcKQCmhJa-1" target="iBOJzQwdKrYFcKQCmhJa-4">
          <mxGeometry relative="1" as="geometry">
            <Array as="points">
              <mxPoint x="380" y="130" />
              <mxPoint x="570" y="130" />
            </Array>
          </mxGeometry>
        </mxCell>
        <mxCell id="iBOJzQwdKrYFcKQCmhJa-8" style="edgeStyle=orthogonalEdgeStyle;rounded=0;orthogonalLoop=1;jettySize=auto;html=1;shape=link;" edge="1" parent="1" source="iBOJzQwdKrYFcKQCmhJa-1" target="iBOJzQwdKrYFcKQCmhJa-7">
          <mxGeometry relative="1" as="geometry" />
        </mxCell>
        <mxCell id="iBOJzQwdKrYFcKQCmhJa-1" value="" style="rounded=0;whiteSpace=wrap;html=1;" vertex="1" parent="1">
          <mxGeometry x="320" y="50" width="120" height="60" as="geometry" />
        </mxCell>
        <mxCell id="iBOJzQwdKrYFcKQCmhJa-2" value="def criarConta():&amp;nbsp;" style="text;html=1;align=center;verticalAlign=middle;whiteSpace=wrap;rounded=0;" vertex="1" parent="1">
          <mxGeometry x="80" y="10" width="140" height="30" as="geometry" />
        </mxCell>
        <mxCell id="iBOJzQwdKrYFcKQCmhJa-11" style="edgeStyle=orthogonalEdgeStyle;rounded=0;orthogonalLoop=1;jettySize=auto;html=1;entryX=0.5;entryY=0;entryDx=0;entryDy=0;shape=link;" edge="1" parent="1" source="iBOJzQwdKrYFcKQCmhJa-3" target="iBOJzQwdKrYFcKQCmhJa-9">
          <mxGeometry relative="1" as="geometry" />
        </mxCell>
        <mxCell id="iBOJzQwdKrYFcKQCmhJa-12" style="edgeStyle=orthogonalEdgeStyle;rounded=0;orthogonalLoop=1;jettySize=auto;html=1;entryX=0.5;entryY=0;entryDx=0;entryDy=0;shape=link;" edge="1" parent="1" source="iBOJzQwdKrYFcKQCmhJa-3" target="iBOJzQwdKrYFcKQCmhJa-10">
          <mxGeometry relative="1" as="geometry" />
        </mxCell>
        <mxCell id="iBOJzQwdKrYFcKQCmhJa-3" value="" style="rounded=0;whiteSpace=wrap;html=1;" vertex="1" parent="1">
          <mxGeometry x="150" y="160" width="120" height="60" as="geometry" />
        </mxCell>
        <mxCell id="iBOJzQwdKrYFcKQCmhJa-15" style="edgeStyle=orthogonalEdgeStyle;rounded=0;orthogonalLoop=1;jettySize=auto;html=1;shape=link;" edge="1" parent="1" source="iBOJzQwdKrYFcKQCmhJa-4" target="iBOJzQwdKrYFcKQCmhJa-13">
          <mxGeometry relative="1" as="geometry" />
        </mxCell>
        <mxCell id="iBOJzQwdKrYFcKQCmhJa-16" style="edgeStyle=orthogonalEdgeStyle;rounded=0;orthogonalLoop=1;jettySize=auto;html=1;entryX=0.5;entryY=0;entryDx=0;entryDy=0;shape=link;" edge="1" parent="1" source="iBOJzQwdKrYFcKQCmhJa-4" target="iBOJzQwdKrYFcKQCmhJa-14">
          <mxGeometry relative="1" as="geometry" />
        </mxCell>
        <mxCell id="iBOJzQwdKrYFcKQCmhJa-4" value="" style="rounded=0;whiteSpace=wrap;html=1;" vertex="1" parent="1">
          <mxGeometry x="510" y="160" width="120" height="60" as="geometry" />
        </mxCell>
        <mxCell id="iBOJzQwdKrYFcKQCmhJa-7" value="" style="rounded=0;whiteSpace=wrap;html=1;" vertex="1" parent="1">
          <mxGeometry x="320" y="160" width="120" height="60" as="geometry" />
        </mxCell>
        <mxCell id="iBOJzQwdKrYFcKQCmhJa-9" value="" style="rounded=0;whiteSpace=wrap;html=1;" vertex="1" parent="1">
          <mxGeometry x="70" y="260" width="120" height="60" as="geometry" />
        </mxCell>
        <mxCell id="iBOJzQwdKrYFcKQCmhJa-10" value="" style="rounded=0;whiteSpace=wrap;html=1;" vertex="1" parent="1">
          <mxGeometry x="230" y="260" width="120" height="60" as="geometry" />
        </mxCell>
        <mxCell id="iBOJzQwdKrYFcKQCmhJa-13" value="" style="rounded=0;whiteSpace=wrap;html=1;" vertex="1" parent="1">
          <mxGeometry x="430" y="260" width="120" height="60" as="geometry" />
        </mxCell>
        <mxCell id="iBOJzQwdKrYFcKQCmhJa-14" value="" style="rounded=0;whiteSpace=wrap;html=1;" vertex="1" parent="1">
          <mxGeometry x="610" y="260" width="120" height="60" as="geometry" />
        </mxCell>
        <mxCell id="iBOJzQwdKrYFcKQCmhJa-17" value="name" style="text;html=1;align=center;verticalAlign=middle;whiteSpace=wrap;rounded=0;" vertex="1" parent="1">
          <mxGeometry x="350" y="175" width="60" height="30" as="geometry" />
        </mxCell>
        <mxCell id="iBOJzQwdKrYFcKQCmhJa-18" value="C" style="text;html=1;align=center;verticalAlign=middle;whiteSpace=wrap;rounded=0;" vertex="1" parent="1">
          <mxGeometry x="90" y="275" width="60" height="30" as="geometry" />
        </mxCell>
        <mxCell id="iBOJzQwdKrYFcKQCmhJa-19" value="C" style="text;html=1;align=center;verticalAlign=middle;whiteSpace=wrap;rounded=0;" vertex="1" parent="1">
          <mxGeometry x="260" y="275" width="60" height="30" as="geometry" />
        </mxCell>
        <mxCell id="iBOJzQwdKrYFcKQCmhJa-20" value="C" style="text;html=1;align=center;verticalAlign=middle;whiteSpace=wrap;rounded=0;" vertex="1" parent="1">
          <mxGeometry x="460" y="275" width="60" height="30" as="geometry" />
        </mxCell>
        <mxCell id="iBOJzQwdKrYFcKQCmhJa-21" value="C" style="text;html=1;align=center;verticalAlign=middle;whiteSpace=wrap;rounded=0;" vertex="1" parent="1">
          <mxGeometry x="640" y="275" width="60" height="30" as="geometry" />
        </mxCell>
        <mxCell id="iBOJzQwdKrYFcKQCmhJa-22" value="matr" style="text;html=1;align=center;verticalAlign=middle;whiteSpace=wrap;rounded=0;" vertex="1" parent="1">
          <mxGeometry x="180" y="175" width="60" height="30" as="geometry" />
        </mxCell>
        <mxCell id="iBOJzQwdKrYFcKQCmhJa-25" value="Pasc" style="text;html=1;align=center;verticalAlign=middle;whiteSpace=wrap;rounded=0;" vertex="1" parent="1">
          <mxGeometry x="540" y="175" width="60" height="30" as="geometry" />
        </mxCell>
        <mxCell id="iBOJzQwdKrYFcKQCmhJa-26" value="A" style="text;html=1;align=center;verticalAlign=middle;whiteSpace=wrap;rounded=0;" vertex="1" parent="1">
          <mxGeometry x="350" y="65" width="60" height="30" as="geometry" />
        </mxCell>
      </root>
    </mxGraphModel>
  </diagram>
</mxfile>
